<!-- Uploaded to: SVG Repo, www.svgrepo.com, Generator: SVG Repo Mixer Tools -->
<svg fill="#fff" height="800px" width="800px" version="1.1" id="Layer_1" xmlns="http://www.w3.org/2000/svg" xmlns:xlink="http://www.w3.org/1999/xlink" viewBox="0 0 512.001 512.001" xml:space="preserve">
	<g>
		<g>
			<path d="M320.782,195.882c-0.69-2.227-2.433-3.972-4.661-4.663l-17.523-5.447L5.725,478.646c-7.631,7.631-7.631,20.001,0,27.632
				c3.815,3.815,8.816,5.724,13.815,5.724s10.001-1.907,13.815-5.724l292.873-292.873L320.782,195.882z"/>
		</g>
	</g>
	<g>
		<g>
			<path d="M510.558,174.422l-38.005-50.929c-6.525-8.742-8.328-20.129-4.825-30.461l20.408-60.182c1.277-3.766-0.763-6.35-1.7-7.285
				c-0.935-0.937-3.521-2.975-7.285-1.7l-60.182,20.408c-10.332,3.505-21.718,1.7-30.461-4.825l-50.93-38.006
				C336.113,0.35,334.67,0,333.422,0c-1.467,0-2.661,0.483-3.298,0.808c-1.18,0.601-3.919,2.428-3.869,6.404l0.813,63.542
				c0.139,10.908-5.094,21.18-14.002,27.48l-51.884,36.692c-3.246,2.295-3.115,5.586-2.907,6.893
				c0.207,1.308,1.099,4.478,4.895,5.657l60.683,18.863c10.418,3.238,18.57,11.39,21.808,21.808l18.863,60.683
				c1.18,3.796,4.349,4.688,5.657,4.895c1.309,0.206,4.598,0.339,6.893-2.907l36.692-51.884c6.298-8.906,16.573-14.124,27.48-14.002
				l63.542,0.813c0.036,0,0.073,0,0.108,0c3.9,0,5.699-2.7,6.296-3.869C511.793,180.696,512.935,177.609,510.558,174.422z"/>
		</g>
	</g>
</svg>